<svg xmlns="http://www.w3.org/2000/svg" viewBox="0 0 166.26 40.26"><defs><style>.cls-1{fill:#231f20}</style></defs><title>Asset 1</title><g id="Layer_2" data-name="Layer 2"><path class="cls-1" d="M128.45 20.14c0-11.25 8.4-20.14 20.49-20.14a21.33 21.33 0 0 1 17.32 9l-8.5 6a11.19 11.19 0 0 0-8.92-4.59c-5.44 0-9.24 4.28-9.24 9.66s3.8 9.66 9.24 9.66a11.19 11.19 0 0 0 8.92-4.59l8.5 6a21.33 21.33 0 0 1-17.32 9c-12.09.12-20.49-8.75-20.49-20zm-21.03-6.6c0-7.82-5.65-12.83-15.26-12.83H76.32v38.81H87v-13h3.33l7.18 13h11.72l-8.83-14.89a11.72 11.72 0 0 0 7.02-11.09zM91.37 9.47c3.17 0 5.07 1.58 5.07 4.28s-1.8 4.33-5 4.38H87V9.47zM112.59.71h10.72v38.81h-10.72zM0 20.12C0 8.87 8.4 0 20.49 0a21.33 21.33 0 0 1 17.32 9l-8.5 6a11.19 11.19 0 0 0-8.92-4.59c-5.44 0-9.24 4.28-9.24 9.66s3.8 9.66 9.24 9.66a11.19 11.19 0 0 0 8.92-4.59l8.5 6a21.33 21.33 0 0 1-17.32 9C8.4 40.24 0 31.37 0 20.12zM42 16V.71h28.76v9.4h-18V16zm10.74 14.12v-5.83H42v15.23h28.8v-9.4zM67.46 16H52.74v8.33h14.72z" id="Layer_1-2" data-name="Layer 1"/></g></svg>