<?xml version="1.0" encoding="utf-8"?>
<!-- Generator: Adobe Illustrator 19.2.1, SVG Export Plug-In . SVG Version: 6.00 Build 0)  -->
<svg version="1.1" id="Layer_1" xmlns="http://www.w3.org/2000/svg" xmlns:xlink="http://www.w3.org/1999/xlink" x="0px" y="0px"
	 width="85px" height="85px" viewBox="0 0 85 85" style="enable-background:new 0 0 85 85;" xml:space="preserve">
<style type="text/css">
	.st0{enable-background:new    ;}
	.st1{fill:#A61E2F;}
</style>
<g class="st0">
	<path d="M0.7,84.2v-0.8h1.4V72.5H0.7v-0.8h7.8v-0.5h1v3h-1v-1.4H4.6v4.4h3V76l1,0v3.7l-1,0v-1.3h-3V83h4.1v-1.4h1v2.5H0.7z"/>
	<path d="M28.3,82.5c-1.2,1.1-2.5,1.6-4.4,1.6h-5.9v-0.8h1.4V72.5h-1.4v-0.8H24c3.6,0,6.3,2.7,6.3,6.2
		C30.3,79.7,29.6,81.3,28.3,82.5z M23.5,72.8h-1.6v10.3h1.5c2.4,0,4.2-2.2,4.2-5.2C27.6,75.2,25.7,72.8,23.5,72.8z"/>
	<path d="M45.1,84.4c-4,0-6.8-2.7-6.8-6.4c0-3.7,2.8-6.5,6.6-6.5c1.2,0,2.1,0.2,3.2,0.6v-0.8h1v3.4h-1v-1.2c-1.1-0.8-1.7-1-2.7-1
		c-2.6,0-4.4,2.2-4.4,5.3c0,3.1,2,5.4,4.6,5.4c0.9,0,1.6-0.2,2.5-0.8v-1.4h1.1v2.5C47.5,84.2,46.5,84.4,45.1,84.4z"/>
	<path d="M66.6,74.4v-1.6h-3.2v10.5h1.8v0.8h-6.1v-0.8h1.8V72.8h-3.3v1.6h-1v-3.2h1v0.5h8.9v-0.5h1v3.2H66.6z"/>
	<path d="M80.7,79.1c-0.3,0-0.5,0-1-0.1V78c0.2,0.1,0.3,0.1,0.5,0.1c1.3,0,2-0.9,2-2.6c0-1.8-0.7-2.7-2.1-2.7H79v10.6h1.6v0.8h-5.5
		v-0.8h1.4V72.5h-1.4v-0.8h5.7c2.3,0,3.9,1.4,3.9,3.6C84.7,77.4,82.9,79.1,80.7,79.1z"/>
</g>
<path class="st1" d="M0.5,3.1h0.1v0.2h0.1v0.1h0.4v0.1h0.3v0.1h1.2v0.1H3V4h0.1v0.1l0,0v0.1H2.9v0.1H2.7l0,0H2.4v0.2H2.3v0.2h0.1
	v0.9h0.1v1h0.1v4.6H2.5v2.2h0.1V15H2.5v1.5H2.4v0.3H2.3V17H2.2v0.1H2.1v0.1H1.7v0.1H1.4v0.1H1.2v0.1H1.1v0.1H1v0.5h0.7l0,0H2v0.1
	h0.4v0.1h0.1v0.2h0.1v0.3h0.1v0.3h0.1v0.1h0.1v0.2H3V20h0.1v0.3H4v-0.1h0.1V20h0.1v-0.2h0.2v-0.1h0.1v-0.3h0.1v-0.1h0.1V19H5v-0.1
	h0.1v-0.2h0.3v-0.1h3v0.1h3.2v0.1H12v-0.1h0.4v0.1h0.3v-0.1h0.1v0.1h2v0.1h1v-0.1h0.3v0.1h1.3v-0.1h0.4v-0.1h0.1v0.1H18v-0.1h0.1
	v0.1h0.2v0.1l0,0l0,0v-0.1h0.3v0.1h0.1v-0.1h1.5v-0.1h0.2v-0.1h0.3v0.1h0.7v0.1h1.1v0.1h0.1V19h1v-0.1h0.7v-0.1h0.3v0.1h0.3V19h0.6
	v-0.1h0.9V19h2.5v0.1H31V19h1.3v0.1h0.4V19h0.1v0.1h0.1V19h0.3v0.1h0.1V19h1.4v0.1H35V19h0.4v0.1H36v0.1l0,0l0,0v-0.1h2.3v0.1h1.4
	v-0.1H40V19h0.3v-0.1h0.2v-0.2h0.1v-0.8h-0.1v-0.1h-0.1v-0.1H40v-0.1l0,0l0,0v0.1h-0.3v-0.1h-0.9v-0.1h-0.3v-0.1h-0.1V17H38v-0.1
	h-0.1v-0.2h-0.1v-0.2h-0.1v-0.2h-0.1V16h0.1v-0.1h0.1v-0.1h0.1v-0.2h0.3v-0.1h0.9v0.1h0.1v0.1h0.2v0.1h0.1V16h0.1v0.1h0.3V16H40v0.1
	h0.4V16h0.3v-0.1h0.2v-0.1H41v-0.2h0.1v0.3h0.1v0.2h0.1v2.5h0.3v0.2h0.5v-0.1h0.5v0.1h0.7v-0.1H44v-0.1h0.1v-0.1h0.1v-0.2h-0.1v-0.1
	h0.1V18h0.1v-0.1H44v-0.1h-0.1V17H44v-0.1h0v-0.1h0.1v-0.1h0.1v-0.3V16h0.1v0.2v0.1h0.1v-0.1h0.1v-0.3h-0.3v-0.2h-0.1v-0.1h0.1v-0.1
	h0.1v-0.1h0.1V15h-0.1v-0.2h0.1v-0.4h-0.2v-0.6h-0.1l0,0l0,0h0.1v0.1h0.1v-0.3h-0.2V13h0.1v-0.1h-0.1v-0.1H44v-0.2l0,0l0,0v0.1h0.2
	v-0.1h-0.1v-0.2h0.1v-0.1h0.1v-0.1h0.1v-0.9h-0.1l0,0l0,0h0.1v-0.1h-0.1v-0.1h0.1v-0.5h-0.2V9.9h0.1V9.5h0.1V9.2h-0.1V9.1h-0.1h-0.7
	v0.1h-0.1v0.1H43v0h-0.1V8.5h-0.1V8.2h0.1V7.7h-0.1V7.2h-0.1V6.7h0.1V6.4h-0.1V6l0,0h0.1V5.4h0.1V5.3H43V5.2h0.2V5.1h0.2V4.9h0.5
	V4.8h0.2v0.1h0.1V4.8h0.5v0.1h2.8V5h0.1v0.1H48l0,0h0.3v0.1H50v0.1h0.7v0.1h0.9V5.3h0.5v0.1h0.8V5.3h0.5v0.1h0.1v0.1h0.3l0,0l0,0
	l0,0v0.1h2.4v0.1h0.2V5.6h0.3v0.1h0.4V5.6h0.4v0.1H59v0.1h0.8V6h1.6V5.9h0.2V6h0.9v0.1h1.7v0.1H66v0.1h2.2v0.1h2V6.3h0.1v0.1h0.2
	v0.1l0,0l0,0v0H71l0,0h0.3V6.3h1.2v0.1h1.9V6.3h1.7V6.2h0.1v0.1h0.2V6.2h0.1v0.1h1.2V6.2h0.4v0.1h0.1v0.2h0.1v1h0.1v0.1h-0.1v0.6
	h0.1v0.3h-0.1v0.1h0.1V9h-0.1v0.9h0.1v0.4h-0.1V13h-0.1v0.5h0.1v0.7h0.1v0.1h-0.1v1.1h0.1v0.9h0.1v0.5h0.1v0.1h0.2V17h1.4v-0.2h0.1
	v-0.1h0.1v-1h0.1V14h0.1v-1.5h-0.1v-1.7h0.1V6.4h0.1V6.1h0.2V5.9h0.2V6h0.1V5.9h1.2L83.8,6h0.6V5.9h0.1V5.3h-0.1V5.2h-0.1V5h-0.2
	V4.9h-0.2V4.8h-0.4V4.6h-0.8V4.5h-0.3V4.4h-0.3V4.1H82V4h-0.1V3.9h-0.1V3.7h-0.1V3.5h-0.1V3.3h-0.1V3h-0.1V2.6h-0.1V2.4h-0.1V2.2H81
	V2.1h-0.7v0.1l0,0v0.1h-0.1v0.1h-0.1v0.1H80v0.1h0.1v0.5h0.1v0.2h-0.1v0.8H80v0.1h-0.1v0.1H79v0.1h-0.3v0.1h-0.2v0.1h-0.7v0.1H77
	v0.1h-2.6v0.1H74V4.8h-3.4v0.1h-0.9V5h-0.1v0.3h-0.9V5.2H65V5.1h-0.7V4.9h-1.4V4.8H62v0.1l0,0V4.8h-0.7V4.7H61V4.5h-0.9V4.4H60V4.3
	h0.2V4.2h0.2V4.1h0.7V3.9h0.3V3.8h1v0.1h0.3V3.8H64V3.7h0.2v0.1h0.1V3.7h0.3V3.5h0.2v0.1l0,0l0,0V3.5h1.3v0.1h1v0.1h0.7V3.6h0.8V3.5
	h0.5v0.1h0.8V3.5H72v0.1h0.8V3.5H73v0.1h0.5v0.1h0.3v0.1h0.3v0h0.2V3.6h0.1V3.1h-0.1V3h-0.1l0,0h-0.9V2.8h-1V3h-0.6v0.1h-0.1v0.1
	h-0.1V3.1h-0.3V3h-3.6V2.8h-1.1V3h-0.7V2.8h-0.5V3h-0.7V2.8h-0.5V3h-0.9v0.1h-1.3v0.1h-1.3V3.1h-0.2v0.1h-0.2V3.1H60v0.1h-1.6V3.1
	h-0.1v0.1h-2V3.1H55V3h-1.5v0.1h-0.6V3h-0.5V2.8h-0.7V2.7H51V3h-0.2V2.8h-0.4V2.7H50v0.1h-0.7V3h-0.6v0.1h-0.4v0.1h-0.1V3.1h-1.8
	v0.1h-0.3v0.1h-0.3v0.1H45v0h-0.6V3.2h-1.1v0.1H43V3.2h-0.2V3.1h-0.1V2.6h-0.2V2.5h0.1V1.8h-0.1V1.1h-0.1V0.4h-0.1V0.1H42V0h-0.7
	v0.1h-0.2v0.1h-0.2v0.1h-0.1v0.1h-0.1V1l0,0v0.8h0.1V2h-0.1v0.5h-0.1v0.1h-0.1v0.1H40V3h-0.3v0.1h-0.2V3H39V2.8h-0.2V3h-2.3v0.1
	h-0.7V3h-0.3v0.1h-0.1v0.1h-0.1V3.1h-0.1V3l0,0l0,0v0.1h-0.3v0.1h-0.3V3.1h-1.8V3h-0.2v0.1h-1.5V3h-0.3v0.1h-0.7V3H29v0.1h-0.5V3
	h-0.2V2.8h-0.9V3h-0.6V2.8h-0.4V3h-0.5V2.8h-0.2V2.7h-0.2v0.1H25v0.1h-0.1V3h-0.2v0.1h-0.2V3h-0.1V2.9l0,0l0,0V3h-0.3V2.8h-0.2V2.7
	h-0.3v0.1h-0.5V3h-0.2V2.8H22V3h-0.5V2.8l-0.2-0.1h-1.1V2.6h-0.3V2.5h-0.2V2.3h-0.2V2.1h-0.9v0.1h-0.2v0.1h-0.3v0.1h-0.3v0.1h-0.3
	v0.1h-0.7v0.1h-1.5V3l0,0l0,0V2.9h-0.9V2.8h-0.1v0.1h-2.2V2.8h-0.7V2.7H10V2.5H9.7v0.1H9.5v0.1H8.6v0.1H7.4V2.7H6.7v0.1H6.3V3H5.9
	V2.8H5.6V2.7H5.4V2.6H5.3V2.5l0,0V2.3H4.9v0.1H3.4V2.3H2.7V2.1H1.5v0.1H1.3V2.1H0.5v0.1l0,0v0.5h0.1L0.5,3.1 M41.5,13.6v0.1h0.1v0.5
	h-0.1v0.3h-0.3v-0.2H41v-0.2h-0.1v-0.3h-0.1v-0.1h0.1v-0.1H41v-0.1h0.1v-0.1h0.1v0.1h0.1v0.1H41.5L41.5,13.6z M38.1,11.8h0.2v-0.1
	h-0.1v-0.1h0.2v-0.1h0.1v-0.1h0.1v-0.1h0.2v-0.1H39v-0.1h0.1V11h0.2v-0.1h0.2v-0.1h0.3v-0.1H40v-0.1h0.2v-0.1h0.1V9.9h0.1V9.8h0.1
	V9.7h0.1V9.6h0.3v0.2h0.2v0.5H41v0.3l0,0v0.1h0V11h-0.1v0.1h-0.3v0.3h-0.3v0.1H40v0.1h-0.2v0.1h-0.2v0.1h-0.1V12h-0.3v0.1h-0.9V12
	h-0.1L38.1,11.8L38.1,11.8z M31.9,15.9h0.2l0.2,0.1v0.2h0.1v0.2h-0.5v-0.1h-0.1L31.9,15.9L31.9,15.9z M17.2,10.6h-0.1v0.1H17V11
	h-0.2v-0.6h0.1v-0.2h-0.2V10h0.1v0h0.4C17.2,10,17.2,10.6,17.2,10.6z M29.1,8.2H29v0.2h-0.1v0.1h-0.1v0.1h-0.1v0.1h-0.1v0.1h-0.1V9
	h-0.2V8.7h-0.1V8.3h-0.1V7.9H28V7.8h0.1V7.7h0.2V7.6h0.4v0.1h0.1v0.1h0.1L29.1,8.2L29.1,8.2z M20.5,4.5h0.2V4.3h1v0.1h1.4v0.1h0.4
	V4.4h0.8v0.1H25v0.1h0.3l0,0h2.9v0.1h0.2V4.6h0.3v0.1h0.2v0.1h0.5v0.1h0.1V5h0.1v0.1h-0.2v0.1h-0.5v0.1h-0.2v0.1l0,0l0,0v0.1h-0.2
	v0.1h-0.8v0.1h-0.4v0.1h-0.5V6h-0.3v0.1h-1.4v0.1h-1.7V6h-0.8V5.9h-1.2V5.6H21V5.5h-0.1V5.4h-0.1V5.3h-0.1V5.1h-0.1L20.5,4.5
	L20.5,4.5z M26.5,8v0.1l-0.1,0.2H26V8.2h0.1V7.9h0.2L26.5,8L26.5,8z M21.8,7.1L21.8,7.1l-0.2,0.1v0.1h-0.1l-0.1-0.1V7.1h0.1V7h0.1
	L21.8,7.1z M19.8,9.7v0.2h0.5V9.8h-0.1V9.6H20V9.4h0.1V9.3h0.2v0.1H21V9.3h0.2V9.2h0.1V9h2.2l0.3,0.2H24v0.1h0.1v0.1h0.1v0.1h0.2
	v0.2h0.3v0.1H25v0.1h0.1v0.2h0.1v0.1h0.1v0.1h0.1v0.1h0.2v0.1h0.2v0.2h0.1v1.4H26v0.2h0.1v0.1h0.1v0.2h0.1v0.5h-0.1v0.2h-0.1v0.1H26
	v0.1h-0.5v0.3h0.2V14h-0.1v0.2h-0.1v0.1h-0.1v0.1h-0.1V15h-0.1v0.1h-0.1v0.3H25v0.2h-0.1v0.1H25V16h-0.2v0.1h-0.5v0.1H24v0.1h-0.1
	v0.1h-0.2v0.1h-0.3v0.1h-0.2v0.1h-1.3v-0.1h-0.2v-0.1h-0.1v-0.2h-0.8v-0.1h-0.2v-0.1h-0.7V16h-0.2v-0.1h-0.1v-0.1h-0.1v-0.1H19v-0.1
	h-0.2v-0.1h-0.1v-0.1h-0.1v-0.2h-0.1v-0.6h0.1v-0.1h-0.1v-0.6h-0.1v-0.4H18v-1h0.1v-0.3h0.1V11h0.1v-0.1h0.1v-0.1h0.1v-0.2h0.2v-0.2
	h-0.1v-0.2H19V9.9h0.2V9.7H19.8L19.8,9.7z M19.6,6.6V7h-0.1v0.1h-0.1v0.1h-0.1v0.1h-0.1v0.2h-0.3v0h-0.1V7.3h-0.2V7.2h-0.1V7h0.1
	V6.9h0.1V6.8h0.1V6.6H19.6z M15,5.9L15,5.9l0.1-0.1h0.1V5.6h0.2V5.5h0.1V5.4h0.1V5.2h0.2V5.1H16V5h0.2V4.9h0.2V4.8h0.1V4.6H17V4.5
	h0.4V4.4H18V4.3l0,0l0,0v0.2h0.2v0.1h0.3v0.5h-0.1v0.1h-0.2v0.1H18v0.1h-0.4v0.1H17v0.1h-0.5v0.1h-0.1V6h-0.1v0.1H16v0.1h-0.7
	l-0.2-0.1L15,5.9z M4.6,4.5L4.6,4.5L4.6,4.5l0.2-0.1V4.2H5V4.1h0.1V3.9H6V4h0.1v0.1h0.1v0.1h0.1v0.3H6.2v0.1H6.1v0.1H5.9V5H5.5v0.1
	H5.2v0.1H4.8V5.1H4.6V4.5L4.6,4.5L4.6,4.5L4.6,4.5z M5.9,8.9v0.3H5.7v0.1H5.6v0.1H5.5v0.1H5.4v0.1H5.2v0.1H4.9v0H4.8V9.1h0.1V8.9
	h0.2V8.8h0.4v0.1L5.9,8.9L5.9,8.9z M4.6,11.9L4.6,11.9l0.1-0.1h0.1v-0.1h0.1v-0.1H5v-0.1h0.5v0.1h0.1v0.7H5.5v0.5h0.1V13h0.1v0h0.1
	v0.1H6v0.1h0.1v0.1h0.1v0.1h0.1v0.1H6.2v0.1H6.1v0.1H6v0.1H5.7v0.1H5.6V14H5.2v0.1H4.9v-0.2H4.8V14H4.7v-0.2H4.6V11.9z M62.4,9.8
	v0.1h-0.2V10h-0.5v0.1h-0.1v0.1H61v0.1h-0.2v0.1h-0.1v0.1h-0.1v0.1h-0.4v0.1H60V11h-0.1v0.1h-0.1v0.1h-0.1v0.1h-0.1v0.1h-0.1v0.1
	l-0.1,0.1h-0.1v0.3H59v0.3h-0.1v0.9h-0.1v0.1h-0.1v0.1h-0.1v0.9h0.1v0.2h0.1v0.1h0.1v0.2h-0.1v0.1h0.1v0.5H59v0.1h0.1V16h0.1v0.1
	h0.1v0.1h0.1v0.1h0.1l0.3,0.5v0.1H60V17h0.1v0.1h0.1v0.1h0.1v0.1h0.1v0.1h0.2v0.1h0.2v0.1h0.1v0.2H61v-0.1h0.1v0.1h0.1V18h2v-0.1
	h0.1v-0.1h0.2v-0.1h0.2v-0.1h0.2v-0.1h0.4v-0.1l0.5-0.3h0.1V17H65v-0.1h0.1v-0.2h0.1v-0.2h0.1v-0.1h0.1V16H66v-0.1h0.2v-0.3h0.1
	v-0.1h0.1v-0.7h0.1v-0.1h0.2v-0.2h0.1V13h-0.1v-0.1h-0.1v-0.2h-0.1v-0.1h-0.1v-0.2l0,0v-0.6h-0.1v-0.3h-0.1V11h-0.1v-0.1H66v-0.1
	h-0.1v-0.1h-0.2v-0.1h-0.2v-0.1h-0.1v-0.2H65V10h-0.1V9.9h-0.3l0,0h-0.7V9.8H62.4z M84.6,22.9v-0.4h-0.1v-0.3h-0.3V22h-0.5v-0.1
	h-0.3v-0.1h-0.2v-1.4h-0.1v-0.1H81v0.1h-0.6v-0.1h-0.3v0.1l0,0h-1v0.1h-0.3v0.1h-0.1v-0.1h-0.4v0.1h-0.1v0.1h-0.7v-0.1H76v-0.1h-1.2
	v-0.1h-1.2v-0.1h-0.3v0.1h-0.6v-0.1h-0.8V20h-0.2v-0.1h-0.2v-0.1h-0.1v0.1h-1.2V20h-0.3v-0.1h-0.7V20h-0.1v0.1l0,0l0,0V20h-0.2v0.1
	h-0.4V20h-0.3v-0.1h-0.1v0.2H68V20h-0.1v-0.1h-0.3V20h-0.2v0.1l0,0l0,0V20h-0.2v-0.1H67v-0.1h-0.4v0.1H66v-0.1h-0.1v-0.1h-0.2v0.1
	l0,0l0,0v-0.1h-0.3v-0.1h-0.3v-0.1H65v0.1h-0.3v0.1h-0.5v-0.1l0,0l0,0v0.2h-0.5v-0.2H62v0.1h-0.2v0.1h-0.2V20h-0.1v0.1H61v-0.3
	l-0.1-0.2v-0.1h-0.1v-0.1h-0.3v0.1h-0.4v0.1l0,0l-0.3-0.1v-0.1H59v-0.1h-1v0.1h-0.2v-0.1h-0.5v0.1h-0.2v-0.1h-0.6V19h-0.1v0.1h-0.1
	v0.1h-0.5v-0.1h-0.1V19h-0.2v-0.1h-0.6V19H52v-0.1h-2V19h-0.7v-0.1H49V19h-0.1v-0.1h-0.4V19h-0.1v-0.1h-0.5v0.2h-1.7v0.1h-0.5v0.1
	h-0.1v0.1h-0.4v-0.1H45v0.1h-0.1v0.1h-0.2v0.2H43V20h-0.1v0.1h-0.1v0.1h-0.1v0.2H43v0.1h0.2v0.1h1v0.1h0.1v0.1h0.1v0.6h-0.2v-0.2
	h-0.9v0.1H43v0.1h0v0.1h-0.1v0.1h-0.1v1h0.1v0.1H43V23h0.1v0.1h0.2v0.1h0.3v0.3h0.1V24h-0.1v0.2h-0.2v0.1l0,0l0,0v-0.2h-0.3v0.1H43
	v-0.1h-0.1V24h-0.2v-0.2h-0.1l-0.2-0.1v-0.1h-0.3v0.2h-0.3v0.1h-0.1V24h-0.1v-0.2H41v-0.2l0,0l0,0v0.1h-0.1v-0.1h-0.6v0.1h-1.1v-0.1
	h-0.1v0.1h-3v0.1h-2.6V24h-0.2v-0.1h-0.6V24h-0.2v-0.1h-1v-0.1h-0.8v-0.1h-0.3v0.1h-1v-0.1H28v0.1h-0.2l-0.3,0.1v0.7l0.1,0.5v0.2
	h0.1v0.2h0.1v0.1h0.1v0.2H28v0.3h0.1v0.1h0.1v0.3h0.1V27h0.1v0.1h0.1v0.4h0.1V28h0.1v0.3H29v0.1h0.1v0.1h0.1v0.2h0.1V29h0.1v0.1h0.1
	v0.1h0.1v0.1h0.1v0.3H30v0.5h0.1v0.1h0.1v0.4h0.1V31h0.1v0.2h0.1v0.3h0.1v0.2h0.1v0.4H31v0.3h0.1v0.1h0.1v0.3h0.1v0.3h0.1v0.2h0.1
	V34h0.1v0.3h0.1v0.3h0.1V35h0.1v0.2H32v0.1h0.1v0.2h0.1v0.7h0.1v0.3h0.1v0.2h0.1v0.5H33v0.5h0.1v0.2h0.1v0.2h0.1v0.1h0.1v0.2h0.1
	v0.5h-0.1v0.5h0.1v0.4h0.1v0.1h0.1v0.2h0.1v0.1H34v0.1h0.1v0.1h0.1v0.1h0.1v0.2h0.1V41h0.1v0.1h0.1V42h0.1v0.3H35v0.3h0.1v0.1h0.1
	V43h0.1v0.3h0.1v0.3h0.1v0.3h0.1V44h0.1v0.2h0.1V45h0.1v0.5H36v0.2h0.1V46h0.1v0.2h0.1v0.3h0.1V47h0.1v0.4H37v0.3h0.1v0.7h0.1v0.2
	h0.1v0.1h0.1v0.2h0.1v0.3h0.1v0.4h0.1V50H38v0.3h0.1v0.3h0.1v0.1h0.1v0.1h0.1V51h0.1v0.1h0.2v0.1h0.1v0.1H39v0.1h0.1v0.1h0.2v0.2
	h0.1v0.1h0.1v0.3h0.1v0.2h0.2v0.2H40v0.2h0.2V53H41v-0.1h0.2v-0.3h0.1v-0.1h0.1l0,0l0,0h-0.8v-0.1h0.1V52h0.1v-1h-0.1v-0.1h-0.1
	v-0.2h-0.1v-0.2h-0.1v-0.3h-0.1v-0.1h-0.1v-0.2H40v-0.2h-0.1v-0.2h-0.1v-0.2h-0.1v-0.2h-0.1v-0.3h-0.1v-0.2h-0.1v-0.3h-0.1v-0.2
	h-0.2v-0.8H39v-0.2h0.1v-0.3h0.2v-0.1h0.1v-0.1h0.1v-0.1h0.1v-0.2h0.2v-0.1h0.1v-0.1H40V46h0.2l0,0h0.1v-0.1h0.1v-0.1h0.1v-0.1h0.1
	v-0.1h0.2v-0.1H41v-0.2h0.2v-0.1h0.5v0.1H42v0.1h0.1v0.1h0.1v0.1h0.2v0.2h0.1v0.8h0.1v1.1h-0.1v0.5h0.1v2.2h0.1v0.7H43v0.8h0.1v0.4
	h0.1V53h0.1v0.2h-0.1v0.3h0.1v2.6h0.1v0.1h0.1v0.1h0.1v0.1h0.1v-0.1H44v0.1h0.1v-0.2h0.1l0,0h0.1v-0.1h0.1V56h0.1v-0.1h0.1V55h0.1
	v-1h-0.1v-0.5h-0.1v-0.2h0.1v-1.6h0.1v-0.2h0.1v-0.3h-0.1v-0.3h0.1v-0.4h-0.1v-1.8h-0.1v-0.2h0.1V48h-0.1v-0.1h0.1V47h-0.1v-1.9h0.1
	v-0.3h0.1V44h-0.1v-0.1h-0.1v-0.2h-0.1v-2.4h0.1v-1h-0.1v-0.7h0.1V39h-0.1v-0.1h0.1v-0.4h-0.1v-0.3h0.1v-0.5h-0.1V36h0.1v-0.5h-0.1
	v-0.8h0.1V34h0.1v-0.5h-0.1v-0.1h0.1v-0.5h-0.1v-0.1h-0.1v-0.2h0.1v-0.5L44.5,32h-0.2v-0.1h-0.1v-0.1h-0.1v-0.2H44v-1.2h0.1v-0.3H44
	V30h0.1v-0.1h0.1v-0.3h-0.1V29H44v-0.2h0.1v-0.2h0.1v-0.5h-0.1v-0.3h0.1v-0.1h-0.1v-0.1H44v-0.4h0.1v-0.7h0.1v-0.2H44v-0.6h0.1v-0.1
	h0.2v-0.1h0.1v0.2h0.2v0.2h0.6v-0.1h0.2v0.1h0.1v-0.1h0.1v-0.1h0.3v-0.1H46v0.1h0.1v-0.5h0.2v0.1h0.2v-0.1h-0.1v-0.1H47v0.1h0.1v0.1
	h0.4v0.1h0.2v0.1h1.6v0.1H50v0.2h0.2v0.1H51v-0.1h0.5v-0.2h0.2v0.1h0.2v-0.1H52v-0.1h0.1V26H53v-0.1h0.7V26h0.1v-0.1h0.5V26h0.3
	v-0.1h0.3V26h0.2v0.1h0.3V26h0.2v-0.1H56V26h0.4v0.1H57V26h0.2v-0.1h0.2v0.2h0.2v0.5h-0.2v0.5H58v0.1h0.3v0.3h-0.7v0.2h-0.1v1h-0.1
	v0.2h-0.1v0.4h-0.1v0.2H57v0.2h-0.1v0.5h-0.1v0.2h-0.1l-0.1,0.3h-0.1v0.2h-0.1v0.3h-0.1V32H56v0.2h-0.1v0.1h-0.1v0.1h-0.1v0.1h-0.1
	l0,0l0,0h0.1v0.1h-0.1V33h-0.1v0.2h-0.1v0.3h-0.1v0.2h-0.1V34h-0.1v0.1H55v0.1h-0.1V35h-0.1v0.3h-0.1v0.1h0.2v0.1h-0.1v0.7h-0.1v0.1
	h-0.2v0.2h-0.1v0.1h-0.2v0.2h0.1v0.1h-0.1V37h-0.1v0.2H54v0.1h-0.1v0.2h-0.1v0.3h-0.1v0.1h-0.1v0.2h-0.1v0.3h-0.1v0.3h-0.1v0.2h-0.1
	V39h-0.1v0.4H53v0.1h-0.1v0.3h-0.1v0.1h-0.1v0.2h-0.1V41h-0.1v0.2h-0.1v0.2l0,0v0.2h-0.1v0.2h-0.1V42h-0.1v0.4H51v0.2h-0.1v0.3h-0.1
	V43h-0.1v0.1h-0.1v0.5h-0.1v0.5h-0.1v0.2h-0.1V45H50v1h-0.1v0.1h-0.1v0.3h-0.1V47h-0.1v0.1h0.1v0.5h0.1v0.1h-0.1v0.8h-0.1v0.2h-0.1
	V49h-0.1v0.2h-0.1V50h-0.1v0.3h-0.1v0.3H49v0.3h-0.1v0.7l0.1,0.3v0.2h0.1v0.1H49v0.2h0.1v0.1h0.1v0.1h0.2v0.1H50v0.1h0.1v-0.1h0.2
	V53h0.1v-0.1h0.1v-0.1h0.1v-0.2h-0.1v-0.1h0.1v-0.2h0.1V52h0.1v-0.1H51v-0.1h0.1v-0.1h0.1v-0.1v-0.3h0.1v-0.5h0.1v-0.1h0.1v-0.1h0.1
	v-0.1h0.5v0.2h0.1v0.1h0.1v0.1h0.1V51h0.1v0.2h0.1v0.1h0.1v0.1h0.1v0.2h0.1v0.1h0.2v0.1h0.1v-0.1h0.9v-0.1h0.1v-0.1h0.3v-0.1H55
	v-0.1h0.1v-0.1h0.1V51h0.1v-0.3h0.1v-0.4h0.1v-1.5h0.1v-0.1h0.1v-0.1h0.1v-0.2h0.1V48H56v-0.3h0.1v-0.3h0.1V47h0.1v-0.2h0.1v-0.3
	h0.1v-0.1h0.1v-0.2H57v-0.1v-0.3l0,0h0.1v-0.3h0.1v-0.7h0.1v-0.1h0.1V44h0.1v-0.3h0.1v-0.3H58v-0.2h0.1V43h0.1v-0.5h0.1v-0.2h0.1V42
	h0.1v-0.3h0.1v-0.3h0.1v-0.2H59v-0.3h0.1v-0.1h0.1v-0.2h0.1v-0.3h0.1V40h0.1v-0.3h0.1v-0.5h0.1v-0.4h0.1v-0.2h0.1v-0.2H60v-0.2h0.1
	V38h0.1v-0.2h0.1v-0.3h0.1v-0.2h0.1V36H61v-0.5h0.2v-0.2h0.1l0,0h0.1v-0.4h0.1v-0.2h0.1v-0.3h0.1V34H62v-0.2h0.1v-0.2h0.1v-0.2h0.1
	v-0.1h0.1V33h0.1v-0.1h0.1v-0.1h0.5V33h0.1v0.2h0.1v0.4h0.1V34h0.1v0.4h0.1v0.3H64v0.4h0.1v0.3h0.1V36h0.1v0.2h0.1v0.2h0.1v0.4h0.1
	V37h0.1v0.3H65v0.1h0.1v0.3h0.1v0.4h0.1v0.3h0.1v0.4h0.1V39h0.1v0.3H66v0.4h0.1v0.5h0.1V41h0.1v0.4h0.1v0.3h0.1v0.2h0.1v0.3h0.1v0.2
	H67v0.5h0.1v0.3h0.1v0.2h0.1v0.1h0.1v0.4h0.1v0.2h0.1v0.3h0.1v0.3h0.1V45h0.1v0.4H68v0.4h0.1V47h0.2v0.4h0.1v0.1h0.1V48H69v0.2h0.1
	v0.3h0.1V49h0.1v0.2h0.1v0.2h0.1v0.5h0.1v0.2h0.1v0.2H70v0.1h0.1v0.1h0.1l0.1,0.5l0,0h-0.1v0.1h0.1v0.1h0.1v0.5h0.1v0.1h0.1v0.4H71
	v0.1h-0.1v0.2h-1.4v0.1h-0.2v0.1h-0.1v0.1h-0.8v-0.1h-0.5v0.1h-1.5v-0.1h-0.7v-0.1h-1.2v-0.1h-0.7v-0.1h-0.2v0.1h-2.5v-0.1h-0.4v0.1
	H60v-0.1h-1.5v-0.1h-0.2v-0.1H58v0.1h-0.2v-0.1h-1.4v-0.1H56v0.1h-0.1V53h-0.1v0.1h-0.1v0.1h-0.1v0.1h-0.1v0.1h-0.1v-0.1h-0.2v0.1
	h-0.4v0.1h-0.1V53h-0.5v0.1h-0.1v0.1H54v0.2h-0.1v0.2h-0.1V54h-0.1v0.1H53v0.1h-1.1v-0.1h-0.3v0.1h-0.1v-0.1h-1.1v0.1h-0.1v0.1h-0.1
	V55h0.1v0.2h0.1v0.1h0.3v0.2h0.7v0.1h0.3v0.1h2v0.1h1.1v-0.1h0.1v0.1h0.5v0.1h0.1V56h1.8v0.1h0.2v0.1h0.9v0.1h0.2v0.1H60v-0.1h0.2
	v-0.1h0.1v-0.1h0.1V56H61v-0.1h0.2V56h0.2v-0.1h0.4v-0.1H63v-0.1h0.4v-0.1h0.3v-0.1H64v0.1h0.2v-0.1h1.2v-0.1h0.4v-0.1h0.4v0.1h0.2
	v-0.1h0.1v0.1h0.3v-0.1h0.7V55h1.4v-0.1H71v-0.1h0.9v-0.1H72v0.1h1v-0.1h2.7v0.1H76v0.1h0.2V55h0.1v0.2h0.1v0.1h0.2v0.1h0.2v0.1h1.3
	v-0.1h0.1v-0.1h0.1v-0.1h0.1V55h0.1v-0.1h1.7v-0.1H81v0.1h0.2V55h0.1v0.1h0.1v0.7h0.1v0.1h0.1v0.2h0.3V56h0.2v-0.1h0.1v-0.3h-0.1
	v-0.4h0.1V55h0.1v-0.1h0.1v-0.1h0.2v-0.1h0.1v-0.1h0.1v-0.1h-0.1v-0.1h-0.1V54h-0.2v-0.1h-0.2v-0.2h0.1v-0.1h-0.1v-0.2h-0.1v-0.1H82
	V53h0.1v-0.1h0.1v-0.8h-0.1v-0.3h0.1V51h-0.1v-0.1h0.1v-0.4h0.1v-0.2h0.1v-0.1h-0.1v-1h-0.1v-3.5h-0.1v-0.2h0.1v-0.4h0.1v-0.5h-0.1
	v-0.5h0.1v-0.2h-0.1v-0.1h0.1v-0.5h-0.1v-0.1h0.1v-0.9h-0.1v-0.1h0.1v-1.4h-0.1l0,0l0,0h0.1V40h-0.1v-0.5h0.1v-0.3h-0.1v-1.4h0.1
	v-1.4h-0.1v-2.8h-0.1v-1.4H82v-0.7h0.1v-1.2H82V28h-0.1v-0.7h-0.1V27h-0.1v-0.4h-0.1v-1h-0.1v-0.1h0.1v-0.4h0.1V25h0.1l0,0h0.3v-0.1
	l0,0l0,0V25h0.1v-0.1H83V25l0,0l0,0v-0.1h0.2V25h0.2v0.1H84v-0.2h0.1v-0.1h0.2v-0.1h0.1v-0.1h0.1v-0.1h0.1v-1h0.2v-0.1h-0.1V23
	L84.6,22.9z M34.7,25.8L34.7,25.8l-0.2,0.1V26h-0.1v0.1h-0.2v0.1h-0.4v0.1h-0.2v0.1h-0.2v0.1H33v0.1h-0.2v-0.2h-0.1v-0.1h-0.1v-0.2
	h0.1V26h0.2v-0.1H33v-0.1h0.1v-0.3h1.4v0.1L34.7,25.8l0.1,0.1h-0.1V25.8z M35.2,34.5L35.2,34.5L35.2,34.5L35,34.6v0.1h-0.1v-0.1
	h-0.1v-0.4h0.1V34H35v0.1h0.1v0.1h0.1L35.2,34.5L35.2,34.5z M37.4,25.8L37.4,25.8l-0.1-0.3h0.1v-0.1h0.4v-0.1H38v0.1h0.4v0.1h0.1
	v0.3h-0.1v0.1h-0.1V26h-0.8v-0.1L37.4,25.8L37.4,25.8z M41.7,39.6L41.7,39.6L41.6,40h-0.1v0.2h-0.2v0.1h-0.1v0.1h-0.3v0.1h-0.1v0.2
	l0,0l0,0v-0.1l-0.1-0.1v-0.1h-0.1v0.1h-0.1v0.2h-0.2v0.1h-0.1V41l-0.1,0.2l0,0l0,0h0.1v0.1h0.1v0.3h-0.1V42h-0.1v0.5H40v0.2h-0.1
	v0.1h-0.1V43h-0.1v0.1h-0.1v0.1h-0.1v0.1h-0.1v0.1h-0.1v0.1h-0.2v0.1H39v0.2h-0.2V44h-0.2v-0.1h-0.2v-0.1h-0.1v-0.5h-0.1V43h0.1
	v-0.2h0.1v-0.2h0.1v-0.1H38v-0.1h0.1v-0.1h0.2V42h0.1v-0.1h0.3v-0.1h0.1l0,0h-0.1v-0.1H39v-0.2h-0.1v-0.1h-0.2V41h0.1v-0.1h-0.1
	v-0.1h0.1v-0.1H39v-0.1h0.1v-0.1h0.1v-0.2h0.1v-0.1h0.1v-0.1h0.1V40h0.1v-0.1h0.1v-0.1H40v-0.1h0.1v-0.1h0.1v-0.2h0.1v-0.1h0.1l0,0
	h0.1v-0.1h0.1v-0.1h0.1V39h0.1v-0.1H41v-0.1h0.3v0.1h0.1v0.2h0.1L41.7,39.6L41.7,39.6z M66.4,34.3L66.4,34.3l-0.1,0.3H66v0.1h-0.1
	v-0.1H66v-0.1h-0.1v-0.1h-0.1v-0.2h-0.1v-0.3h0.1v-0.1h-0.1v-0.2h-0.1v-0.7h-0.2v-0.1h-0.1v-0.3h0.1v-0.1h-0.1V32H65v-0.2h-0.1v-0.2
	h-0.1v-0.2l-0.1-0.1v-0.2h-0.1l0,0l0,0h0.1V31h-0.2v0.1h-0.1V31h-0.1v-0.1H64v-0.1h-0.1v-0.1h-0.1v-0.1h-0.1v-0.4h-0.1v-0.9h0.1V29
	h0.1v-0.1h0.1v-0.2h0.3v0.1l0.2,0.1V29h-0.1v0.1h0.1v0.6h-0.1v0.1h0.1v0.1h0.1V30h0.1v0.2h0.2v0.1h0.1v0.1H65v0.2h0.1V31h0.1v0.1
	h0.1v0.4h0.1v0.7h0.1v0.2h0.1v0.1h0.1v0.1h0.1v0.6h0.1L66.4,34.3L66.4,34.3L66.4,34.3L66.4,34.3z M74,53.4h-0.2v-0.1h-0.1v0.1h-0.3
	v-0.1h-0.2v-0.1H73V53h-0.1v-0.2h-0.1v-0.1h-0.1v-0.2h-0.1v-0.1h-0.1v-0.1h-0.1v-0.1h-0.1v-0.4H72v-0.2h-0.1v-0.3h-0.1v-0.2h-0.1
	v-0.3h0.7v0.1h0.1v0.2h0.1v0.5h0.3v0.1h0.2v0.1h0.1v0.1h0.2V52h0.1v0h0.1v0.3h0.1v0.1h0.1v0.4h0.1L74,53.4L74,53.4z M81.3,52.9h-0.2
	v0.7H81v0.1h-0.3v0.1h-0.1v0.1h-1.4V54h-0.4v-0.1h-0.1v-0.1h-0.1v0.1l0,0l0,0v-0.1l-0.3-0.2h-0.1v-0.1H78v-0.2h-0.1v-0.2h-0.1V53
	h-0.1v-0.2h-0.1v-0.3H77v-0.2h-0.1v-0.2l0,0v-0.2h-0.1v-0.3h-0.1v-0.2h-0.1v-0.2h-0.1v-0.1h-0.1V51h-0.1v-0.3h-0.1v-0.3h-0.1v-0.2
	H76V50h-0.1v-0.1h-0.1v-0.3h-0.1v-0.3l0,0v-0.1h-0.1v-0.4h-0.1v-0.2h-0.1v-0.3h-0.1v-0.1h-0.1V47h-0.1v-0.2H75v-0.2h-0.1v-0.3h-0.1
	V46h-0.1v-0.1H74v-0.2h-0.1v-0.2h-0.1v-0.4h-0.1v-0.5h-0.1V44h-0.1v-0.2l0,0v-0.2h-0.1v-0.2h-0.1v-0.1H73v-0.4h-0.1v-0.6h-0.1v-0.2
	h-0.1v-0.7h-0.1v-0.3h-0.1v-0.2h-0.1v-0.1h-0.1v-0.2h-0.1v-0.3h-0.1v-0.2H72V40h-0.1v-0.1h-0.1v-0.1l-0.1-0.1l-0.2-0.3h-0.1v-0.1
	h-0.2v-0.6h-0.1v-0.4H71v-0.2h-0.1v-0.3h-0.1V37h-0.1v-0.2H70v-0.5h-0.1V36h-0.1v-0.2h0.1v-0.5h-0.1v-0.4h-0.1v-0.4h-0.1v-0.1h-0.1
	V34h-0.1v-0.1h-0.1v-0.2H69v-0.4h-0.1v-0.4h-0.1v-0.2h-0.1v-0.2h-0.1v-0.1h-0.1V32h-0.1v-0.4h-0.1v-0.3h-0.1V31H68v-0.1h-0.1v-0.1
	h-0.1v-0.2h-0.1v-0.4h-0.1V30h-0.1v-0.7h-0.1V29v-0.3H67v-0.3h-0.1v-0.1h-0.1v-0.1h-0.2v-0.1h-0.1v-0.2h-0.1v-0.1h-0.1V27H66v-0.2
	h-0.1v-0.1h-0.1v-0.3h-0.2v-0.1h-0.1v-0.1h-0.1V26h0.1v-0.1h-0.1v-0.1h0.2v-0.1h0.1v-0.1H66l0.2,0.1h0.1v0.1h0.1v0.1h0.1V26h0.3
	v-0.1h0.5v-0.1h1.2v0.1H72V26h0.1l0.5-0.1H74V26h0.3v-0.1h3.5V26h0.5v-0.1l0,0l0,0V26h0.1v-0.1h0.1V26h0.1l0,0h0.6v0.1h0.2v0.1h0.1
	l0.1,0.2h0.1v0.1h-0.1v2.1h0.1V29h0.1v1h-0.1v1h0.1v1.5h0.1v0.4h-0.1v0.7h0.1v0.6H80V36h-0.1v0.6H80v0.2h-0.1v1.9H80v0.4h-0.1v0.7
	H80v0.5h-0.1v0.2H80v0.1h-0.1v0.5H80V42h-0.1v0.2H80v0.1h-0.1l0,0v0.6H80v0.3h-0.1v0.2H80v0.7h-0.1v1.5H80v4h0.1v0.3h0.1v0.2h0.1
	v0.1h0.1v0.3h0.1v0.4h0.1v0.2h0.1v0.1h-0.1l0,0l0,0h0.1v0.2h0.1v0.4h0.1v0.3h0.4V52.9z M9.2,42.6L9.2,42.6l0.1-0.1v-0.2h0.1V42h0.1
	v-0.3h0.1v-0.2h0.1v-0.3H10V41h0.1v-0.1h0.1v-0.1h0.1v-0.2h0.1V40h0.1v-0.1h0.1v-0.2h0.1v-0.1h0.1v-0.2h0.1v-0.2H11V39h0.1v-0.2h0.1
	v-0.1h0.1v-0.3h0.1V38h0.1v-0.2H12v-0.2h0.1v-0.2h0.1v-0.2h0.1v-0.1h0.1v-0.3h0.1v-0.3h0.1v-0.1h0.1v-0.3H13V36h0.1v-0.2h0.1v-0.2
	h0.1v-0.3h0.1v-0.2h0.1V35h0.1v-0.1H14v-0.2h0.1v-0.2h0.1v-0.3h0.1v-0.1h0.1v-0.2h0.1v-0.3h0.1V33h0.1v-0.1H15V32h0.1v-0.3h0.1v-0.1
	h0.1l0.1-0.3h0.1V31h0.1v-0.2h0.1v-0.1h0.1v-0.2h0.1l0,0H16v-0.1h0.1v-0.2h0.1V30h0.1v-0.1h0.1v-0.3h0.1v-0.3H17v-0.2h0.1v-0.3h0.1
	v-0.2h0.1V28h0.1v-0.2h0.1v-0.3h0.1v-0.1h0.1v-0.5H18v-0.1h0.1v-0.1h0.1v-0.1h0.1v-0.1h0.1v-0.1h0.1v-0.2h0.1V26h0.1v-0.4h0.1V25
	h-0.1v-0.1h-0.1v-0.1H19v-0.1h-0.1v-0.1h-0.1v-0.1h-0.1v-0.1h-0.5v0.1h-0.3v0.1h-0.1v0.1h-1.3v-0.1H16v-0.1h-0.4v-0.2h-1.2v-0.1H14
	v0.1h-0.1v-0.1l0,0l0,0v0.1h-0.7v0.1h-0.4v-0.1h-0.1v0.1H12v-0.1h-0.4v0.1h-0.1v-0.1h-0.2v-0.1h-0.5v0.1H10v0.1H9.9v0.1H9.8v0.1H9.3
	v-0.2H9.2v-0.1H8.9v-0.1H8.8V24H8v0.1H7.8v0.1H7.5v0.1H7.3v0.1H7.1v-0.5H6.9V24H6.8v-0.1H6.7V24H6.2v-0.1H6v-0.1H5.5v-0.1H5v-0.1
	H4.4v0.1H4V24H3.9v0.1H3.7v0.1H3.6v0.2H3.5v0.1H3.2v0.1H3v0.6H2.9l0,0l0,0H3v0.2h0.1V26h0.1v0.5L3.4,27v0.2H3.2v0.4H3.1V28h0.1v0.2
	h0.1v0.2h0.1v0.2h0.1v0.3H3.4v0.3h0v0.1H3.2v0.1H3v0.2h0.1v0.5H3v0.2h0.1v0.6H3v0.2H2.9v0.1H3v0.1h0.1v0.1H3v0.2h0.1v0.1h0.2v0.1
	l0,0v0.1H3.2V32h0.1v0.4H3.2V33H2.9v0.1H3v0.1h0.1v0.2l0,0V34h0.2v0.1H3.2v0.2H3v0.8h0.2v0.3H2.9v0.3H3V36h0.1v0.1H3v0.2h0.2v0.1H3
	v0.2H2.9v0.2H2.8v0.7H2.6v0.2h0.1v0.2h0.1V38H2.7v0.1h0.1v0.1H2.7v0.3H2.6v0.3h0.1l0,0l0,0H2.6v2H2.5l0,0l0,0h0.1v0.3H2.5v1.6H2.4
	v2.6H2.2v2.5h0.1v0.1h0.1V48h0.1v1h0.1v0.2h0.1v0.1h0.1v0.1H3v0.1h0.3v-0.1h0.1v-0.1h0.2v-0.1H4V49h0.1v-0.1h0.1v-0.1h0.1v-0.2h0.1
	v-0.3H4.3v-0.6H4.2v-0.5h0.1v-0.6H4.2l0,0l0,0h0.1v-0.5H4.2V45H4.1v-0.1h0.1v-0.5h0.1v-0.3h0.1v-0.2h0.1v-0.1h0.2v-0.1h0.1v-0.1h0.4
	v0.1h0.1v0.1h0.1v0.1h0.1V44h0.1v1.7h0.1V46H6l0,0h0.1v0.1h0.5V46h0.2v-0.1H7v-0.1h0.1v-0.1h0.1v-0.2h0.1v-0.1h0.1v-0.1h0.1v-0.5
	h0.1v-0.3h0.1v-0.3h0.1v-0.3h0.1v-0.1H8v-0.2h0.1v-0.1h0.1V43h0.1v-0.2h0.1v-0.1h0.3l0,0l0,0h0.5V42.6z M5.5,38.6v-0.7h0.2v-0.2H5.6
	v-1h0.1v-0.1h0.1v-0.1h0.3v0.1h0.2v0.8h0v0.1H6.2v0.1H6.1v0.2H5.9v0.3l0,0v0.1H5.7v0.2H5.6L5.5,38.6L5.5,38.6L5.5,38.6z M6.8,40.4
	H6.6v0.4H6.5V41H6.4v0.1H6.3v0.1H6.2v0.1H6v-0.1H5.9v-0.1H5.8V41H5.7v-0.4h0.1v-0.7H5.7v-0.2h0.1v0.1H6v-0.2h0.4v0.1h0.1v0.1h0.2V40
	h0.1L6.8,40.4L6.8,40.4z M7.8,34H7.7v0.1H7.6v0.1H7.2v-0.1H7.1V34h0.2v-0.3h0.2v-0.1h0.2L7.8,34L7.8,34z M8.7,33.2H8.4v-0.1l0,0
	l-0.1,0.1H8.1v-0.1h0.1V33h0.1v-0.2h0.1v-0.1h0.1v-0.1h0.1l0.2,0.3L8.7,33.2L8.7,33.2z M24.9,47.5L24.9,47.5l-0.1,0.2L24.9,47.5
	L24.9,47.5z M32.1,52.4L32.1,52.4L32.1,52.4l-0.2-0.1v-0.2h-0.1V52h-0.1v-0.2h-0.1v-0.3h-0.1l0,0l0,0h0.1v-0.1h-0.1v-0.1h-0.1v-0.2
	h-0.1v-0.4H31v-0.5h-0.1v-0.3h-0.1v-0.4l0,0v-0.2h-0.1v-0.2h-0.1v-0.4h-0.1v-0.1h-0.1v-0.3h-0.1V48h-0.1v-0.5h-0.1v-0.1H30v-0.2
	h-0.1v-0.1h-0.1v-0.2h-0.1l-0.1-0.2v-0.1l0,0v-0.2h-0.1V46H29v-0.1h-0.1v-0.2h-0.1v-0.2h-0.1v-1h-0.1V43h-0.1v-0.1h-0.1v-0.2h-0.1
	v-0.1H28v-0.3h-0.1v-0.2h-0.1V42h-0.1v-0.4h-0.1V41h-0.1v-0.4h-0.1v-0.1l0,0v-0.3h-0.1v-0.1L27,40v-0.4h-0.1v-0.2h-0.1v-0.2h-0.1
	v-0.3h-0.1v-0.3h-0.1v-0.2h-0.1v-0.2H26v-0.5h-0.1v-0.1h-0.1V37h-0.1v-0.5l0,0V36h-0.1v-0.4h-0.1l-0.1-0.2V35h-0.1v-0.2h-0.1v-0.5
	h-0.1V34H25v-0.1h-0.1v-0.1H25v-0.1h-0.1v-0.1h-0.1v-0.1h-0.1v-0.1h-0.1l0,0l0,0h0.1v-0.1h-0.1v-0.1h-0.1v-0.3h-0.1V32H24v-0.4h-0.1
	v0.1h-0.1v-0.3l0,0v-0.2h-0.1v-0.1h-0.1v-0.2h-0.2v-0.1h-0.1v-0.1h-1v0.1h-0.2v0.1H22V31h-0.1v0.2h-0.1v0.1h-0.1v0.2h-0.1v0.2h-0.1
	V32h-0.1v0.2h-0.1v0.3h-0.1v0.1h-0.1v0.3H21v0.2h-0.1v0.2h-0.1v0.1h-0.1V34h-0.1v0.1h-0.1v0.3h-0.2v0.2h-0.1v0.3h-0.1V35H20v0.1
	h-0.1v0.2l0,0v0.2h-0.1v0.3h-0.1v0.1h-0.1v0.2h-0.1v0.2h-0.1v0.1h-0.1v0.3h-0.1v0.1h-0.1V37H19v0.1h0.1v0.1H19v0.1h-0.1v0.2h-0.1
	v0.2h-0.1v0.1L18.6,38h-0.1v0.1h-0.1v0.3h-0.1v0.2h-0.1v0.1L17.1,40H17v0.2h-0.1v0.2h-0.1v0.2h-0.1v0.2h-0.1v0.3h-0.1v0.1h-0.1v0.1
	h-0.1v0.2H16l-0.1,0.3h-0.1V42l0,0v0.2h-0.1v0.1h-0.1v0.2h-0.1v0.3h-0.1v0.4h-0.1v0.3h-0.1v0.2h-0.1v0.2H15v0.2h-0.1v0.3h-0.1v0.2
	h-0.1v0.1h-0.1v0.2h-0.1v0.2L14,46v0.2h-0.1v0.1h-0.1v0.2h-0.1v0.3h-0.1v0.1h-0.1v0.3h-0.1v0.2h-0.1v0.1h-0.1V48h-0.1v0.2H13v0.2
	h-0.1v0.2h-0.1v0.3h-0.1v0.2h-0.1v0.2h-0.1v0.2h0.3v0.1h0.1v0.9H13v0.1h0.1V51h0.1v0.1h0.1v0.1h0.3v0.1h0.1v-0.1h0.8v-0.1h0.1V51
	h0.3v-0.1h0.2v-0.3l0,0l0,0v0.1h0.1v0.1h0.1V51h-0.1v0.1H15v0.6h0.1l0,0l0,0H15v0.5h0.1v0.2h0.1v0.1h-0.1V53h0.1v0.1h-0.1v0.2H15
	v0.2h-0.1V54H15v0.1h0.1v0.1h0.1v0.1h0.5v0.1H16v0.1h0.3v0.1h0.2v0.1h-0.1v0.1h-0.1v0.1h-0.1v-0.1H15v0.1h-0.1V55h-0.1v0.1h-0.1v0.1
	h-0.1v0.2h-0.2v0.1h-0.1v0.1h-0.7v0.1H13v-0.1h-0.5v0.1h-0.1v0.1h-0.1v0.1h-0.1v0.4h0.1V57h0.1v0.1h0.3v-0.5h0.4v-0.1h3.6v0.1H17
	v0.1h1v0.1h0.3v0.1h0.6v-0.1h0.3v0.1h1.4V57h0.5v0l0,0l0,0v0.1H22V57h0.3v-0.1h1.6v-0.1H24v0.1h1v-0.1h1.1v-0.1H27v0.1h1.9v-0.1h0.2
	v-0.1h1.6v0.1h0.1v-0.1h0.1v-0.1h1v-0.2h-0.1v-0.4h-0.1v-0.1h-0.1v-0.1h-0.1v-0.1h-0.2v-0.1H31v-0.1h-0.4v-0.1h-1.1v-0.1h-2.4v-0.1
	h-0.8V55h-0.5v-0.1h-0.2v-0.1H25v-0.1h-0.1V54h-0.1v-0.3H25l0,0h0.2v-0.1h0.1v-0.1h0.1v-0.1h0.3v-0.1H26v-0.1h0.4v-0.1h0.3v-0.2H27
	v-0.2h-0.1v-0.2h-0.1l0,0h0.1v-0.3h-0.1v-0.1h0.1V52H27v-0.1h0.1v-0.1h0.1v-0.1h0.1V51h0.1v-0.1l0,0l0,0v0.2h0.2v-0.2h-0.1v-0.3h0.1
	v0.1h0.1v0.1h0.1v-0.1H28v-0.1h0.1v-0.1H29v0.1h0.1v0.1h0.1v0.8l-0.1,0.2h0.2v0.1h0.2v0.1h0.3V52h0.1v0.1H30v0.1h0.1v0.2h0.1v0.4
	h0.1V53h0.1v0.1h0.1v0.1h0.2v0.1H31v0.1h0.1v0.1h0.2v0.1h0.3v-0.1h0.1v-0.1h0.1v-0.2h0.1V53H32L32.1,52.4L32.1,52.4z M16.5,46.9
	h-0.1V47h-0.2v0.1H16V47h-0.1v-0.5h0.5L16.5,46.9L16.5,46.9z M23.5,43.7L23.5,43.7L23.5,43.7l0.1-0.2h0.1v-0.1h0.2v-0.2h0.3V43h0.1
	v-0.1h0.2v-0.1h0.1v-0.1h0.1v-0.1H25v0.1h0.1v0.5H25v0.1h0v0.1h-0.1v0.1h-0.2v0.1h-0.3v0.1h-0.5v0.1h-0.1V44h-0.1v-0.1v-0.2H23.5z
	 M23.1,43.6l0.2,0.1V44h0.1v0.1h-0.3C23.1,44.1,23.1,43.6,23.1,43.6z M21.2,45.1L21.2,45.1l0.1-0.1h0.3v-0.1h0.1v-0.1l0,0l0,0v0.4
	h-0.1v0.1h-0.1v0.1h-0.1v-0.1h-0.1v-0.1h-0.1L21.2,45.1z M23.1,49.3h-0.2v0.2h-0.1v0.1h-0.2v0.2h-0.1v0.1h-0.1V50h-0.2v0.1H22v0.1
	h-0.2v0.2h-0.1v0.1h-0.1v0.1h-0.2V51H21v0.1h-0.1v0.1h-0.2v0.1h-0.1v0.1h-0.1v0.1h-0.2v0.2h-0.1v0.8h0.1V53H20v0.1h-0.5V53h-0.6
	v-0.1l0,0l0,0V53h-0.3v-0.2h-0.2V53H18v0.1h-0.2V53h-0.4v-0.1h-0.6v-0.5H17v-0.2h0.1V52h0.2v-0.1h0.1v-0.1h0.2v-0.1h0.1v-0.1h0.2
	v-0.1H18v-0.1h0.1v-0.1h0.2V51h0.2v-0.2h0.1v-0.1h0.2v0.1l0,0l0,0v-0.1H19v-0.1h0.2v-0.1h0.1v-0.2h0.1v-0.1h0.1v-0.1H20v-0.2
	l0.1-0.1h0.4l0.1,0.1h0.2v-0.1H21v-0.1h0.3v-0.1h0.1v-0.2h0.1V49h0.2v-0.2h0.2v-0.2h0.2v-0.3l0,0L22,47.9h0.2V48h0.1v0.1h0.1v0.1
	h0.1v0.1h0.1v0.5l0.2,0.1L23.1,49.3L23.1,49.3z M26.8,46.2h-0.2v0.1h-0.1v0.1h-0.1v0.1h-0.2v0.1h-0.1v0.1H26v0.1h-0.1V47h-0.2v0.1
	h-0.1v0.1h-0.1v0.1h-0.2v0.2h-0.1v0.1h-0.1v0.1H25V48h-0.2v-0.1h-0.1V48h-0.2v0.1H24v0.2h-0.1v0.1h-0.1v0.2h-0.5v-0.2h-0.2v-0.2h0.1
	V48h-0.1v-0.2h-0.2v-0.1H23v-0.3l-0.1-0.1v-0.4H23v-0.1h0.2v-0.1l0.3-0.1h0.2v-0.2h0.2v-0.1H24V46h0.2v-0.1h0.2v-0.1h0.2v-0.1h0.1
	v-0.1H25v-0.1h0.2v-0.1h0.1v-0.1h0.2v-0.1H26v-0.1h0.4V45h0.2v0.2h0.1L26.8,46.2L26.8,46.2z M22.6,48.7v-0.2h-0.1L22.6,48.7
	l-0.2-0.1v0.1H22.6L22.6,48.7z M28.3,52.3L28.3,52.3l0.2-0.1V52h0.2v-0.1h-0.6v-0.3h-0.2v0.1h-0.1v0.2h-0.1v0.2h-0.2v0.1h0.3v0.1H28
	v-0.1l0,0l0,0v0.1H28.3L28.3,52.3z"/>
</svg>
