<?xml version="1.0" encoding="UTF-8"?>
<svg width="396px" height="32px" viewBox="0 0 396 32" version="1.1" xmlns="http://www.w3.org/2000/svg" xmlns:xlink="http://www.w3.org/1999/xlink">
    <!-- Generator: sketchtool 63.1 (101010) - https://sketch.com -->
    <title>C8BCC742-73C1-4A95-8750-2923ABD012AC@1.00x</title>
    <desc>Created with sketchtool.</desc>
    <g id="terry" stroke="none" stroke-width="1" fill="none" fill-rule="evenodd">
        <g id="Elevate_Prize_Desktop_Full_Final_V3" transform="translate(-80.000000, -24.000000)">
            <g id="Header">
                <g id="ElevatePrize_Logo_Horizontal" transform="translate(80.000000, 24.000000)">
                    <g id="Group-19" transform="translate(0.000000, 0.306477)">
                        <path d="M287.726481,14.4707405 L281.326462,14.4707405 L281.326462,4.11990758 L287.687309,4.11990758 C292.604374,4.11990758 294.798027,5.67934106 294.798027,9.17687426 C294.798027,12.8879902 292.682719,14.4707405 287.726481,14.4707405 M287.804826,0.688594338 L277.657316,0.688594338 L277.657316,30.7776393 L281.326462,30.7776393 L281.326462,17.8246417 L287.528754,17.8246417 C294.582579,17.8246417 298.467173,14.7253609 298.467173,9.09759684 C298.467173,3.67502136 294.681443,0.688594338 287.804826,0.688594338" id="Fill-3" fill="#5B5D5E"></path>
                        <path d="M315.633905,14.3131184 L309.233886,14.3131184 L309.233886,4.11990758 L315.5938,4.11990758 C320.605998,4.11990758 322.744623,5.62151517 322.744623,9.13770189 C322.744623,12.8143088 320.684343,14.3131184 315.633905,14.3131184 L315.633905,14.3131184 Z M319.651871,17.2221333 C324.138973,16.2008536 326.413769,13.4438648 326.413769,9.0192521 C326.413769,3.64610842 322.655086,0.688594338 315.830699,0.688594338 L305.603912,0.688594338 L305.603912,30.7776393 L309.233886,30.7776393 L309.233886,17.6670195 L315.810181,17.6670195 L322.959138,30.7776393 L327.106747,30.7776393 L319.651871,17.2221333 Z" id="Fill-5" fill="#5B5D5E"></path>
                        <polygon id="Fill-7" fill="#5B5D5E" points="335.050624 30.7782922 338.718837 30.7782922 338.718837 0.688314535 335.050624 0.688314535"></polygon>
                        <polygon id="Fill-9" fill="#5B5D5E" points="368.946757 0.688221268 348.295456 0.688221268 348.295456 3.92273998 364.283379 3.92273998 347.229407 28.081834 347.15013 28.1937551 347.15013 30.778199 368.946757 30.778199 368.946757 27.5436802 351.891852 27.5436802 368.946757 3.31090483"></polygon>
                        <polygon id="Fill-10" fill="#5B5D5E" points="49.0776658 14.0170871 34.1054256 14.0170871 34.1054256 0.688221268 30.4362801 0.688221268 30.4362801 30.778199 34.1054256 30.778199 34.1054256 17.4493331 49.0776658 17.4493331 49.0776658 30.778199 52.7468113 30.778199 52.7468113 0.688221268 49.0776658 0.688221268"></polygon>
                        <path d="M62.0257202,17.4494263 L81.4990524,17.4494263 L81.4990524,14.0171804 L62.0257202,14.0171804 L62.0257202,17.4494263 Z M62.0257202,4.13921397 L81.4990524,4.13921397 L81.4990524,0.707900721 L62.0257202,0.707900721 L62.0257202,4.13921397 Z M62.0257202,30.7782922 L81.4990524,30.7782922 L81.4990524,27.3460463 L62.0257202,27.3460463 L62.0257202,30.7782922 Z" id="Fill-11" fill="#5B5D5E"></path>
                        <polygon id="Fill-12" fill="#5B5D5E" points="0.000186535104 4.15935976 9.43886282 4.15935976 9.43886282 30.7779191 13.1080083 30.7779191 13.1080083 4.15935976 22.5476173 4.15935976 22.5476173 0.687941465 0.000186535104 0.687941465"></polygon>
                        <path d="M375.862639,4.12895454 L395.335971,4.12895454 L395.335971,0.69764129 L375.862639,0.69764129 L375.862639,4.12895454 Z M375.862639,30.7680328 L395.335971,30.7680328 L395.335971,27.3367195 L375.862639,27.3367195 L375.862639,30.7680328 Z M375.862639,17.4391669 L395.335971,17.4391669 L395.335971,14.0078537 L375.862639,14.0078537 L375.862639,17.4391669 Z" id="Fill-16" fill="#5B5D5E"></path>
                        <polygon id="Fill-1" fill="#EBC81A" points="118.07784 0.688034732 118.07784 30.7780124 136.044902 30.7780124 136.044902 27.3457665 121.746986 27.3457665 121.746986 0.688034732"></polygon>
                        <polygon id="Fill-2" fill="#EBC81A" points="220.807106 0.688034732 220.807106 4.04318342 230.245782 4.04318342 230.245782 29.7780124 233.914928 29.7780124 233.914928 4.04318342 243.354537 4.04318342 243.354537 0.688034732"></polygon>
                        <path d="M143.095742,3.95608307 L162.570007,3.95608307 L162.570007,0.638882732 L143.095742,0.638882732 L143.095742,3.95608307 Z M143.095742,16.8218432 L162.570007,16.8218432 L162.570007,13.5046429 L143.095742,13.5046429 L143.095742,16.8218432 Z M143.095742,29.7083416 L162.570007,29.7083416 L162.570007,26.3902396 L143.095742,26.3902396 L143.095742,29.7083416 Z" id="Fill-13" fill="#EBC81A"></path>
                        <polygon id="Fill-14" fill="#EBC81A" points="109.992196 3.95599335 109.992196 0.638789465 90.5188642 0.638789465 90.5188642 29.709181 109.992196 29.709181 109.992196 26.3910754 94.1880097 26.3910754 94.1880097 16.8226689 107.68569 16.8226689 107.68569 13.505465 94.1880097 13.505465 94.1880097 3.95599335"></polygon>
                        <path d="M269.032493,0.638789465 L269.032493,3.95599335 L253.227373,3.95599335 L253.227373,13.505465 L266.725986,13.505465 L266.725986,16.8226689 L253.227373,16.8226689 L253.227373,26.3910754 L269.032493,26.3910754 L269.032493,29.709181 L249.558228,29.709181 L249.558228,0.638789465 L269.032493,0.638789465 Z M173.186746,0.626291613 L181.602277,24.4087821 L190.05698,0.626291613 L193.699078,0.626291613 L183.172902,29.7088079 L179.912269,29.7088079 L169.386093,0.626291613 L173.186746,0.626291613 Z" id="Fill-20" fill="#EBC81A"></path>
                        <polygon id="Fill-18" fill="#EBC81A" points="198.98026 29.7087146 207.434964 5.9262241 215.850495 29.7087146 219.651148 29.7087146 209.124972 0.626198345 205.864338 0.626198345 195.338162 29.7087146"></polygon>
                    </g>
                </g>
            </g>
        </g>
    </g>
</svg>