<?xml version="1.0" encoding="UTF-8" standalone="no"?>
<svg
   xmlns:dc="http://purl.org/dc/elements/1.1/"
   xmlns:cc="http://creativecommons.org/ns#"
   xmlns:rdf="http://www.w3.org/1999/02/22-rdf-syntax-ns#"
   xmlns:svg="http://www.w3.org/2000/svg"
   xmlns="http://www.w3.org/2000/svg"
   viewBox="0 0 607.84003 213.84"
   height="213.84"
   width="607.84003"
   xml:space="preserve"
   id="svg2"
   version="1.1"><metadata
     id="metadata8"><rdf:RDF><cc:Work
         rdf:about=""><dc:format>image/svg+xml</dc:format><dc:type
           rdf:resource="http://purl.org/dc/dcmitype/StillImage" /></cc:Work></rdf:RDF></metadata><defs
     id="defs6" /><g
     transform="matrix(1.3333333,0,0,-1.3333333,0,213.84)"
     id="g10"><g
       transform="scale(0.1)"
       id="g12"><path
         id="path14"
         style="fill:#ed1639;fill-opacity:1;fill-rule:nonzero;stroke:none"
         d="m 1629.27,1073.07 c -34.16,10.44 -71.61,16.72 -116.12,16.28 -55.12,-0.68 -109.41,-10.89 -165.49,-28.5 -19.19,-4.27 -37.8,-6.96 -55.82,-7.55 -41.33,0.02 -70.66,12.45 -86.01,33.51 -18.92,26.44 -16.8,66.65 9.84,113.11 10.55,17.74 20.93,30.71 34.56,45.19 h -0.52 c 38.56,36.07 69.75,74.48 94.18,116.74 83.25,123.06 44.14,237.5 -111.03,239.45 -155.3,-3.35 -304.735,-79.84 -421.563,-230.05 -120.981,-150.29 -82.988,-292.6 69.492,-296.05 39.723,-0.53 82.313,7.89 128.291,23.64 18.11,4.29 32.48,6.59 48.38,6.7 29.14,-0.24 52.23,-8.27 67.76,-21.92 29.01,-25.66 30.98,-71.26 -1.7,-125.511 -8.86,-14.589 -18.13,-25.484 -29.59,-37.886 -50.38,-42.653 -92.91,-88.168 -126.543,-139.203 -30.907,-47.395 -48.473,-90.383 -54.813,-130.997 -0.504,1.075 -0.527,0.547 -0.504,1.602 -5.8,-19.453 -11.925,-30.41 -23.472,-47.051 C 846.754,544.719 816.785,535.449 752.633,502.461 726.977,493.301 666.254,472 645.586,472 c -19.602,0.52 -22.223,0.59 -39.527,7.941 -25.504,17.598 -57.547,27.45 -98.825,29.071 C 352.613,511.461 188.191,453.512 57.957,295.352 -44.6719,159.711 -13.5273,-0.0117188 171.609,0.261719 208.27,-3.41797 468.539,31.3984 591.055,209.602 c 34.578,46.238 54.222,88.66 62.664,128.16 6.219,14.679 11.769,24.59 21.133,37.597 29.64,40 64.57,55.993 110.789,81.282 46.218,25.269 95.125,51.187 141.761,52.078 22.246,-0.571 35.938,-3.59 50.086,-9.25 33.932,-19.43 78.132,-30.649 136.382,-31.649 111.67,1.641 276.61,8.989 470.91,159.282 0.55,0.519 102.63,87.246 135.95,155.382 23.25,38.067 35.78,72.188 40.4,105.957 0.59,2.645 1.75,6.844 2.97,13.168 6.24,35.329 8.56,124.271 -134.83,171.461" /><path
         id="path16"
         style="fill:#231f20;fill-opacity:1;fill-rule:nonzero;stroke:none"
         d="m 2159.86,609.738 c 0,33.528 -23.59,54.746 -57.62,54.746 h -69.4 V 477.988 h 19.9 v 76.742 h 49.5 c 34.03,0 57.62,21.469 57.62,55.008 m -19.91,0 c 0,-24.629 -16.23,-37.187 -39.55,-37.187 h -47.66 v 74.113 h 47.66 c 23.32,0 39.55,-12.297 39.55,-36.926 m 142.81,-13.367 c -9.16,9.172 -18.6,12.051 -30.91,12.051 -14.91,0 -29.06,-6.531 -36.13,-17.274 v 15.7 h -18.85 v -128.86 h 18.85 v 79.094 c 0,19.648 12.05,34.59 30.91,34.59 9.95,0 15.18,-2.363 22.26,-9.434 z m 125.25,-53.93 c 0,19.899 -2.61,37.957 -15.71,51.329 -8.9,8.902 -21.21,14.652 -36.91,14.652 -15.74,0 -28.05,-5.75 -36.95,-14.652 -13.1,-13.372 -15.71,-31.43 -15.71,-51.329 0,-19.921 2.61,-38 15.71,-51.339 8.9,-8.911 21.21,-14.68 36.95,-14.68 15.7,0 28.01,5.769 36.91,14.68 13.1,13.339 15.71,31.418 15.71,51.339 m -18.86,0 c 0,-14.421 -0.79,-30.39 -10.21,-39.82 -6.02,-6.031 -14.39,-9.441 -23.55,-9.441 -9.19,0 -17.31,3.41 -23.33,9.441 -9.42,9.43 -10.47,25.399 -10.47,39.82 0,14.391 1.05,30.379 10.47,39.797 6.02,6.024 14.14,9.434 23.33,9.434 9.16,0 17.53,-3.41 23.55,-9.434 9.42,-9.418 10.21,-25.406 10.21,-39.797 m 244,-64.453 V 560.5 c 0,14.91 -4.7,26.969 -13.87,35.871 -7.85,7.617 -19.37,12.051 -33.27,12.051 -18.07,0 -32.48,-7.32 -42.43,-21.473 -7.85,14.153 -21.74,21.473 -39.55,21.473 -14.39,0 -27.23,-5.223 -36.4,-15.703 v 14.129 h -18.85 v -128.86 h 18.85 v 79.364 c 0,22.527 12.82,34.32 32.2,34.32 19.4,0 31.7,-11.531 31.7,-34.32 v -79.364 h 18.87 v 81.461 c 0,20.43 13.34,32.223 32.2,32.223 19.38,0 31.69,-11.531 31.69,-34.32 v -79.364 z m 144.93,64.453 c 0,19.899 -2.62,37.957 -15.72,51.329 -8.91,8.902 -21.22,14.652 -36.93,14.652 -15.72,0 -28.01,-5.75 -36.92,-14.652 -13.1,-13.372 -15.72,-31.43 -15.72,-51.329 0,-19.921 2.62,-38 15.72,-51.339 8.91,-8.911 21.2,-14.68 36.92,-14.68 15.71,0 28.02,5.769 36.93,14.68 13.1,13.339 15.72,31.418 15.72,51.339 m -18.85,0 c 0,-14.421 -0.79,-30.39 -10.21,-39.82 -6.05,-6.031 -14.43,-9.441 -23.59,-9.441 -9.16,0 -17.27,3.41 -23.32,9.441 -9.42,9.43 -10.47,25.399 -10.47,39.82 0,14.391 1.05,30.379 10.47,39.797 6.05,6.024 14.16,9.434 23.32,9.434 9.16,0 17.54,-3.41 23.59,-9.434 9.42,-9.418 10.21,-25.406 10.21,-39.797 m 107.87,-64.453 v 16.231 h -9.95 c -12.05,0 -17.56,7.09 -17.56,18.883 v 78.57 h 27.51 v 14.387 h -27.51 v 40.339 h -18.85 v -40.339 h -16.23 v -14.387 h 16.23 V 512.57 c 0,-19.129 11,-34.582 33,-34.582 z m 56.7,186.762 h -21.22 v -21.223 h 21.22 z m -1.31,-57.902 h -18.85 v -128.86 h 18.85 z m 147.58,-128.86 V 560.5 c 0,14.91 -4.18,26.969 -13.34,35.871 -7.86,7.879 -19.12,12.051 -33.01,12.051 -14.41,0 -26.97,-5.223 -36.14,-15.703 v 14.129 h -18.87 v -128.86 h 18.87 v 79.364 c 0,22.527 12.56,34.32 31.95,34.32 19.39,0 31.69,-11.531 31.69,-34.32 v -79.364 z m 141.65,-3.929 v 132.789 h -18.59 v -15.176 c -10.48,13.605 -22,16.75 -36.15,16.75 -13.09,0 -24.61,-4.434 -31.42,-11.262 -12.83,-12.82 -15.72,-32.738 -15.72,-53.68 0,-20.96 2.89,-40.859 15.72,-53.699 6.81,-6.82 18.07,-11.519 31.15,-11.519 13.89,0 25.68,3.398 36.16,16.75 v -20.16 c 0,-22.012 -10.48,-39.551 -35.38,-39.551 -14.91,0 -21.45,4.461 -30.89,12.84 l -12.3,-12.051 c 13.6,-12.32 24.35,-17.289 43.72,-17.289 33.8,0 53.7,23.301 53.7,55.258 m -18.85,69.421 c 0,-24.101 -3.94,-48.199 -31.96,-48.199 -28.02,0 -32.21,24.098 -32.21,48.199 0,24.079 4.19,48.192 32.21,48.192 28.02,0 31.96,-24.113 31.96,-48.192 m 159.76,121.004 h -19.9 V 477.988 h 19.9 z M 3502.68,477.988 V 560.5 c 0,14.91 -4.18,26.969 -13.36,35.871 -7.85,7.879 -19.12,12.051 -32.99,12.051 -14.41,0 -26.99,-5.223 -36.15,-15.703 v 14.129 h -18.86 v -128.86 h 18.86 v 79.364 c 0,22.527 12.58,34.32 31.95,34.32 19.38,0 31.69,-11.531 31.69,-34.32 v -79.364 z m 146.86,0 V 560.5 c 0,14.91 -4.2,26.969 -13.36,35.871 -7.86,7.879 -19.12,12.051 -32.99,12.051 -14.42,0 -26.99,-5.223 -36.15,-15.703 v 14.129 h -18.86 v -128.86 h 18.86 v 79.364 c 0,22.527 12.57,34.32 31.95,34.32 19.38,0 31.7,-11.531 31.7,-34.32 v -79.364 z m 144.64,64.453 c 0,19.899 -2.59,37.957 -15.7,51.329 -8.9,8.902 -21.21,14.652 -36.92,14.652 -15.73,0 -28.04,-5.75 -36.95,-14.652 -13.09,-13.372 -15.7,-31.43 -15.7,-51.329 0,-19.921 2.61,-38 15.7,-51.339 8.91,-8.911 21.22,-14.68 36.95,-14.68 15.71,0 28.02,5.769 36.92,14.68 13.11,13.339 15.7,31.418 15.7,51.339 m -18.84,0 c 0,-14.421 -0.79,-30.39 -10.22,-39.82 -6.01,-6.031 -14.39,-9.441 -23.56,-9.441 -9.18,0 -17.3,3.41 -23.31,9.441 -9.44,9.43 -10.48,25.399 -10.48,39.82 0,14.391 1.04,30.379 10.48,39.797 6.01,6.024 14.13,9.434 23.31,9.434 9.17,0 17.55,-3.41 23.56,-9.434 9.43,-9.418 10.22,-25.406 10.22,-39.797 m 151.03,64.407 h -20.43 l -35.37,-103.457 -35.11,103.457 h -20.41 l 47.14,-128.86 h 16.76 z m 123.45,-128.86 v 87.473 c 0,28.051 -17.01,42.961 -51.59,42.961 -20.96,0 -34.05,-4.172 -45.57,-19.113 l 12.82,-11.797 c 7.61,10.75 15.99,14.679 32.48,14.679 23.58,0 33.01,-9.421 33.01,-28.281 v -12.308 h -38.76 c -28.81,0 -44.54,-14.68 -44.54,-37.211 0,-10.219 3.42,-19.903 9.7,-26.18 8.11,-8.379 18.58,-11.789 36.41,-11.789 17.28,0 26.71,3.41 37.19,13.887 v -12.321 z m -18.85,45.571 c 0,-10.719 -2.1,-18.071 -6.54,-22.25 -8.14,-7.868 -17.83,-8.637 -28.83,-8.637 -20.43,0 -29.6,7.066 -29.6,21.976 0,14.942 9.43,22.793 28.83,22.793 h 36.14 z m 113.5,-45.571 v 16.231 h -9.95 c -12.04,0 -17.54,7.09 -17.54,18.883 v 78.57 h 27.49 v 14.387 h -27.49 v 40.339 h -18.86 v -40.339 h -16.23 v -14.387 h 16.23 V 512.57 c 0,-19.129 11.01,-34.582 33.01,-34.582 z m 56.72,186.762 h -21.22 v -21.223 h 21.22 z m -1.31,-57.902 h -18.86 v -128.86 h 18.86 z m 145.43,-64.407 c 0,19.899 -2.63,37.957 -15.73,51.329 -8.9,8.902 -21.2,14.652 -36.92,14.652 -15.7,0 -28.02,-5.75 -36.92,-14.652 -13.1,-13.372 -15.73,-31.43 -15.73,-51.329 0,-19.921 2.63,-38 15.73,-51.339 8.9,-8.911 21.22,-14.68 36.92,-14.68 15.72,0 28.02,5.769 36.92,14.68 13.1,13.339 15.73,31.418 15.73,51.339 m -18.86,0 c 0,-14.421 -0.78,-30.39 -10.21,-39.82 -6.04,-6.031 -14.42,-9.441 -23.58,-9.441 -9.17,0 -17.28,3.41 -23.32,9.441 -9.42,9.43 -10.48,25.399 -10.48,39.82 0,14.391 1.06,30.379 10.48,39.797 6.04,6.024 14.15,9.434 23.32,9.434 9.16,0 17.54,-3.41 23.58,-9.434 9.43,-9.418 10.21,-25.406 10.21,-39.797 m 160.97,-64.453 V 560.5 c 0,14.91 -4.17,26.969 -13.36,35.871 -7.85,7.879 -19.12,12.051 -32.99,12.051 -14.42,0 -26.99,-5.223 -36.15,-15.703 v 14.129 h -18.86 v -128.86 h 18.86 v 79.364 c 0,22.527 12.57,34.32 31.95,34.32 19.38,0 31.7,-11.531 31.7,-34.32 v -79.364 z m 71.37,24.633 h -24.63 v -24.633 h 24.63 v 24.633" /><path
         id="path18"
         style="fill:#231f20;fill-opacity:1;fill-rule:nonzero;stroke:none"
         d="m 2540.12,1463.04 v 134.23 h -507.7 V 826.527 h 150.47 v 312.833 h 304.18 v 134.23 h -304.18 v 189.45 z m 676.46,0 v 134.23 H 2708.87 V 826.527 h 150.49 v 312.833 h 304.17 v 134.23 h -304.17 v 189.45 z m 701.47,-320.42 v 112.58 h -291.2 v -125.57 h 141.81 v -29.23 c 0,-40.05 -9.74,-74.7 -34.63,-102.849 -24.91,-27.059 -61.7,-43.289 -107.18,-43.289 -41.14,0 -74.7,15.136 -96.35,40.054 -29.23,32.454 -36.79,69.274 -36.79,217.574 0,148.3 7.56,184.04 36.79,216.5 21.65,24.91 55.21,41.15 96.35,41.15 76.87,0 121.24,-40.06 138.56,-112.59 h 151.57 c -20.58,129.91 -111.51,246.82 -290.13,246.82 -86.59,0 -153.72,-30.31 -207.84,-84.45 -77.93,-77.94 -75.77,-174.27 -75.77,-307.43 0,-133.15 -2.16,-229.499 75.77,-307.433 54.12,-54.137 123.41,-84.434 207.84,-84.434 82.27,0 155.89,23.797 217.6,87.672 54.11,56.305 73.6,123.405 73.6,234.925" /></g></g></svg>