<svg xmlns="http://www.w3.org/2000/svg" viewBox="0 0 204.99 36"><defs><style>.cls-1{fill:#231f20;}</style></defs><title>Border-topAsset 2</title><g id="Layer_2" data-name="Layer 2"><g id="Layer_1-2" data-name="Layer 1"><path class="cls-1" d="M140.29,13.47a7,7,0,0,1-3-.65l.31-1.83a6,6,0,0,0,2.73.8c.62,0,1-.26,1-.77s-.25-.71-1.46-1.18c-1.73-.66-2.48-1.22-2.48-2.65,0-1.66,1.3-2.54,3-2.54a5.5,5.5,0,0,1,2.6.57L142.65,7a4.74,4.74,0,0,0-2.25-.7c-.65,0-1,.27-1,.67s.23.65,1.31,1.07c1.89.68,2.62,1.33,2.62,2.71C143.37,12.64,142,13.47,140.29,13.47Z"/><path class="cls-1" d="M148.66,13.52c-2.57,0-4.13-1.73-4.13-4.45s1.64-4.48,4.23-4.48a4.45,4.45,0,0,1,2.28.57l-.3,1.92a3,3,0,0,0-1.86-.7c-1.35,0-2.21,1-2.21,2.68s.91,2.67,2.26,2.67a3.65,3.65,0,0,0,2-.66l.27,1.79A4.78,4.78,0,0,1,148.66,13.52Z"/><path class="cls-1" d="M157.84,13.37V9.87h-3v3.5h-2.13V4.74h2.13V8h3V4.74H160v8.63Z"/><path class="cls-1" d="M165.7,13.53c-2.48,0-4.1-1.8-4.1-4.46s1.62-4.49,4.12-4.49,4.11,1.8,4.11,4.46S168.21,13.53,165.7,13.53Zm0-7.27c-1.24,0-2,1.08-2,2.8s.73,2.8,2,2.8,2-1.09,2-2.8S167,6.26,165.71,6.26Z"/><path class="cls-1" d="M175.2,13.53c-2.48,0-4.1-1.8-4.1-4.46s1.62-4.49,4.12-4.49,4.11,1.8,4.11,4.46S177.71,13.53,175.2,13.53Zm0-7.27c-1.24,0-2,1.08-2,2.8s.73,2.8,2,2.8,2-1.09,2-2.8S176.46,6.26,175.21,6.26Z"/><path class="cls-1" d="M181,13.37V4.74h2.14v6.78h2.65l.28,1.85Z"/><path class="cls-1" d="M194.07,13.53c-2.47,0-4.1-1.8-4.1-4.46s1.63-4.49,4.13-4.49,4.11,1.8,4.11,4.46S196.59,13.53,194.07,13.53Zm0-7.27c-1.24,0-2,1.08-2,2.8s.74,2.8,2,2.8,2-1.09,2-2.8S195.34,6.26,194.09,6.26Z"/><path class="cls-1" d="M202,6.53V8.29h2.25l.3,1.79H202v3.29h-2.12V4.74H205V6.53Z"/><path class="cls-1" d="M145.07,31.37v-5.7l-1.88,5.74h-1.88l-1.87-5.74v5.7h-1.82V22.74h2.87l1.92,5.89,1.91-5.89h2.79v8.63Z"/><path class="cls-1" d="M149.11,31.37V22.74h5.38v1.73h-3.28v1.62h2.5l.28,1.72h-2.78v1.82h3.39v1.74Z"/><path class="cls-1" d="M159.29,31.37h-3V22.74h3c3,0,4.56,1.74,4.56,4.3S162.2,31.37,159.29,31.37Zm-.11-7h-.77v5.3h.77c1.52,0,2.48-.8,2.48-2.65A2.33,2.33,0,0,0,159.18,24.41Z"/><path class="cls-1" d="M165.44,31.37V22.74h2.14v8.63Z"/><path class="cls-1" d="M173.35,31.52c-2.57,0-4.13-1.73-4.13-4.45s1.64-4.48,4.23-4.48a4.45,4.45,0,0,1,2.28.57l-.3,1.92a3,3,0,0,0-1.86-.7c-1.35,0-2.21,1-2.21,2.68s.91,2.67,2.26,2.67a3.65,3.65,0,0,0,2-.66l.27,1.79A4.78,4.78,0,0,1,173.35,31.52Z"/><path class="cls-1" d="M177.42,31.37V22.74h2.14v8.63Z"/><path class="cls-1" d="M187,31.37l-3.4-5.16v5.16h-2V22.74h2.08l3.17,4.83V22.74h2v8.63Z"/><path class="cls-1" d="M190.8,31.37V22.74h5.37v1.73H192.9v1.62h2.5l.27,1.72H192.9v1.82h3.38v1.74Z"/><rect class="cls-1" x="126.72" width="0.4" height="36"/><path class="cls-1" d="M11.91,9.88c.06,0,.09,0,.09,0,3.95-.15,6.22,1.35,6.41,2l1.58,0,.49-1.07a.33.33,0,0,0,0-.25C20,10,16,8.87,11.21,8.87c-5.12,0-8.37,1-9.06,1.52a.34.34,0,0,0-.16.25.76.76,0,0,0,.09.26l.14.3c0,.09.11.08.21,0s.09,0,.11-.09,0-.16,0-.16c-.1-.21,0-.24,0-.24l.3-.14c.14,0,.15,0,.2.15a.59.59,0,0,0,.09.18,5.81,5.81,0,0,0,1-.26l.16-.05c.07,0,0-.26,0-.26s-.08-.24.18-.28L4.92,10c.21-.05.22.06.25.17a.65.65,0,0,0,.06.25c0,.1.16-.05,1.49-.19,0,0,.2,0,.23-.08a.42.42,0,0,0,0-.22c0-.16-.08-.28.23-.3l.58-.06c.44-.07.37.08.38.24a.69.69,0,0,0,0,.21s.17,0,.17,0c.74-.08,1.16-.08,2-.11,0,0,.12,0,.16-.05a.11.11,0,0,0,0-.09c0-.09,0-.24,0-.3s.16,0,.27,0h.66c.11,0,.32,0,.38,0a1.34,1.34,0,0,1,0,.33.13.13,0,0,0,0,.08Z"/><path class="cls-1" d="M11.24,3.46C7.38,3.46,5,4.7,3.48,6.19a.17.17,0,0,0,0,.07c0,.07,0,.19.12.13,3.31-1.39,6.93-.52,8.08.79,0,.06,0,.08-.05.08A25.51,25.51,0,0,0,7.3,7.5c-1.16.17-2.2.34-3.07.56a10.94,10.94,0,0,0-3,1.22.56.56,0,0,0-.28.29c-.06.19-.05.19-.09.32a3.94,3.94,0,0,0-.12.47c0,.15.13.1.21,0a4.79,4.79,0,0,1,1.35-.92,14.52,14.52,0,0,1,3.16-1A33.11,33.11,0,0,1,11.1,8a29.74,29.74,0,0,1,5.8.54,16.27,16.27,0,0,1,3.86,1.2,3.64,3.64,0,0,1,.89.6c.21.22.23,0,.22,0a3.32,3.32,0,0,0-.39-.94A11.18,11.18,0,0,0,11.24,3.46"/><path class="cls-1" d="M0,29.3C0,30.2,3.74,32,11.46,32,19,32,22.91,30.2,22.91,29.3l0-1.37s0-.1,0-.06c0-.25-.4-.3-1.62-.32l0-.76c0,.08-.26.24-.42.33-1,.57-4.75,1.42-9.47,1.42-5.46,0-9.28-1.13-9.88-1.75V28c1.79,1.28,7.33,2.43,12.92,1.84a.86.86,0,0,1,.39,0s.2.15-.11.26C11.39,31.15,3.39,30.91,0,28.34l0,1"/><path class="cls-1" d="M16,11.52h0Z"/><path class="cls-1" d="M15.9,11.81h0v-.24h0v.23Z"/><polygon class="cls-1" points="15.9 11.82 15.9 11.82 15.9 11.58 15.9 11.58 15.9 11.82 15.9 11.82"/><path class="cls-1" d="M13.85,11.43h0Z"/><path class="cls-1" d="M16,11H13.92c-.1,0-.14,0-.15.15v.24a.14.14,0,0,0,.16.16h.66c.06,0,.07,0,.07,0s-.09.12-.13.15l-.32.21a.21.21,0,0,0-.09.2V27.24c0,.26.45.29.91.28s.85,0,.89-.28c0,0,0-14.39,0-15.63,0-.06,0-.07,0-.08H16q.15,0,.15-.15v-.26A.13.13,0,0,0,16,11Z"/><path class="cls-1" d="M12.57,21.49l0-.1h.14v-.1H9.83v.1H10l0,.09.17.37.07,0a.39.39,0,0,0,.14,0h.73a.22.22,0,0,1,.17,0s0,.12-.06.19-.67.45-.87.57c0,0-.09.06-.11.12a.3.3,0,0,0,0,.1v2.84l-.25.1s-.07.57,0,.63a21.86,21.86,0,0,0,2.56,0c.08-.05,0-.64,0-.64l-.25-.09V22l.24-.49Z"/><path class="cls-1" d="M20.13,11.79H18c-.11,0-.15.05-.16.16v.23a.14.14,0,0,0,.16.16h.66a.08.08,0,0,1,.08,0c0,.06-.1.12-.14.14l-.32.22c-.05,0-.09.08-.09.2V26.57c0,.27.45.29.91.29s.85,0,.9-.28c0,0,0-12.91,0-14.15,0-.06,0-.07,0-.08h.08a.13.13,0,0,0,.15-.15v-.25a.14.14,0,0,0-.14-.15Z"/><path class="cls-1" d="M8.59,11H6.48a.13.13,0,0,0-.15.15v.24a.14.14,0,0,0,.16.16h.65a.09.09,0,0,1,.08,0c0,.07-.09.12-.13.15l-.33.21a.24.24,0,0,0-.08.2l0,15.13c0,.26.46.29.92.28s.84,0,.89-.27c0,0,0-14.4,0-15.64a.08.08,0,0,1,0-.08h.08a.15.15,0,0,0,.15-.15v-.25A.15.15,0,0,0,8.59,11Z"/><path class="cls-1" d="M4.48,11.83H2.37c-.1,0-.15.05-.15.16v.23a.14.14,0,0,0,.16.16H3s.07,0,.07,0-.09.12-.13.14l-.32.21a.22.22,0,0,0-.09.21V26.61c0,.27.45.29.91.29s.84,0,.89-.28c0,0,0-12.91,0-14.15,0-.06,0-.07,0-.08h.08a.13.13,0,0,0,.15-.15V12a.15.15,0,0,0-.15-.15Z"/><path class="cls-1" d="M115,11.75a10,10,0,0,0-9.74-6.59c-7.14,0-11.59,5.17-11.59,12.35,0,7.74,5.56,13.43,12.06,13.43,3.38,0,7.52-1.16,10.43-6.33H117a29,29,0,0,1-2.74,6.24c-2.73-.38-4.61,1.16-9.65,1.16-8.69,0-14.92-5.73-14.92-13.64C89.69,10.08,96.1,4.1,105,4.1c5.39,0,7.69,1.71,9,1.71.47,0,.68-.13.77-.26h.64l.39,6.2Z"/><path class="cls-1" d="M79.52,4.74v.81c3.41.08,4.18.56,4.18,3.16v17l-20.13-21H47.5v.81c3.55.17,4.19.9,4.19,5v10c0,7.26-4.91,9.27-9.74,9.27-6.37,0-9.74-3.46-9.74-9.23V8.67c0-2.48,1-3.12,3.37-3.12H36V4.74H25v.81c2.91,0,3.68.47,3.68,3.2V21.24C28.66,27.35,32.85,32,41,32c9.28,0,12.65-5.69,12.65-11V9.48c0-3.17,1.52-3.92,3.5-3.92a5.77,5.77,0,0,1,3.3,1v21c0,2-.86,2.87-3.51,2.87h-.17v.81H66.7v-.81c-3.63,0-4.32-.64-4.32-3.72V8.45L84.52,31.62h1.11V7.77c0-1.66.68-2.22,3.89-2.22V4.74Z"/></g></g></svg>